<?xml version="1.0" encoding="UTF-8"?>
<!-- Generated by Pixelmator Pro 3.7 -->
<svg width="1024" height="1024" viewBox="0 0 1024 1024" xmlns="http://www.w3.org/2000/svg">
    <path id="Circle" fill="#ffffff" fill-rule="evenodd" stroke="none" d="M 512 0 C 794.769775 0 1024 229.230225 1024 512 C 1024 794.769775 794.769775 1024 512 1024 C 229.230209 1024 0 794.769775 0 512 C 0 229.230225 229.230209 0 512 0 Z M 240.648743 724.262085 C 275.994965 663.040649 354.278534 642.064636 415.5 677.410889 C 476.721466 712.75708 497.697479 791.040649 462.351257 852.262085 C 427.005035 913.483582 348.721466 934.459595 287.5 899.113342 C 226.278549 863.767151 205.302521 785.483582 240.648743 724.262085 Z M 559.648743 852.262085 C 524.302551 791.040649 545.278564 712.75708 606.5 677.410889 C 667.721436 642.064636 746.005005 663.040649 781.351257 724.262085 C 816.697449 785.483582 795.721436 863.767151 734.5 899.113342 C 673.278564 934.459595 594.994995 913.483582 559.648743 852.262085 Z M 192 384 C 262.692444 384 320 441.307556 320 512 C 320 582.692444 262.692444 640 192 640 C 121.307556 640 64 582.692444 64 512 C 64 441.307556 121.307556 384 192 384 Z M 958 512 C 958 441.307556 900.692444 384 830 384 C 759.307556 384 702 441.307556 702 512 C 702 582.692444 759.307556 640 830 640 C 900.692444 640 958 582.692444 958 512 Z M 456.583618 543.994629 C 438.913483 513.389038 449.399719 474.253784 480.005341 456.583618 C 510.610962 438.913452 549.746216 449.399719 567.416382 480.005371 C 585.086487 510.610962 574.600281 549.746216 543.994629 567.416382 C 513.389038 585.086548 474.253784 574.600281 456.583618 543.994629 Z M 287.5 124.886658 C 226.278549 160.232849 205.302521 238.516418 240.648743 299.737915 C 275.994965 360.959351 354.278534 381.935364 415.5 346.589172 C 476.721466 311.24292 497.697479 232.959351 462.351257 171.737915 C 427.005035 110.516418 348.721466 89.540405 287.5 124.886658 Z M 734.5 124.886658 C 673.278564 89.540405 594.994995 110.516418 559.648743 171.737915 C 524.302551 232.959351 545.278564 311.24292 606.5 346.589172 C 667.721436 381.935364 746.005005 360.959351 781.351257 299.737915 C 816.697449 238.516418 795.721436 160.232849 734.5 124.886658 Z"/>
</svg>
